<?xml version="1.0" standalone="no"?>
<!DOCTYPE svg PUBLIC "-//W3C//DTD SVG 20010904//EN"
 "http://www.w3.org/TR/2001/REC-SVG-20010904/DTD/svg10.dtd">
<svg version="1.0" xmlns="http://www.w3.org/2000/svg"
 width="995.000000pt" height="1280.000000pt" viewBox="0 0 995.000000 1280.000000"
 preserveAspectRatio="xMidYMid meet">
<metadata>
Created by potrace 1.15, written by Peter Selinger 2001-2017
</metadata>
<g transform="translate(0.000000,1280.000000) scale(0.100000,-0.100000)"
fill="#f44336" stroke="none">
<path d="M5296 12631 c-31 -39 -61 -73 -67 -76 -17 -11 -66 -123 -82 -190 -14
-56 -32 -191 -41 -315 -10 -129 -13 -411 -5 -416 5 -3 7 -20 5 -37 -3 -18 -8
-53 -11 -79 -8 -62 -22 -62 -94 0 -31 27 -87 70 -126 97 -38 26 -89 62 -112
79 -23 17 -59 42 -78 56 -20 14 -64 49 -98 79 -34 29 -72 57 -84 62 -13 5 -23
14 -23 20 0 6 -14 41 -32 76 -28 57 -32 78 -38 181 -4 65 -12 129 -18 144 -16
39 -111 158 -127 158 -7 0 -18 6 -25 14 -14 18 -40 10 -40 -13 0 -9 -5 -22
-10 -27 -8 -8 -6 -32 5 -80 9 -38 19 -89 24 -114 4 -25 17 -67 29 -94 28 -63
28 -78 0 -74 -16 2 -42 32 -86 98 -35 53 -77 105 -93 115 -16 11 -46 44 -66
73 -20 28 -40 52 -43 52 -4 0 -13 14 -20 30 -12 29 -42 41 -54 21 -3 -5 -2
-29 3 -54 l8 -46 -60 -66 c-72 -77 -93 -124 -117 -265 -10 -58 -30 -169 -44
-248 -17 -97 -24 -168 -21 -218 2 -41 0 -99 -4 -130 -5 -37 -3 -78 5 -118 7
-33 18 -189 24 -346 5 -157 12 -316 15 -355 3 -38 9 -144 15 -235 5 -91 12
-183 15 -205 2 -22 7 -68 10 -102 3 -34 8 -68 11 -76 2 -7 6 -49 8 -93 2 -43
11 -106 19 -139 41 -166 58 -251 52 -272 -3 -13 -1 -31 4 -41 5 -10 6 -32 1
-52 l-8 -35 -1 33 c-1 23 -6 32 -18 33 -57 3 -58 4 -58 29 0 14 -3 30 -8 37
-4 7 0 16 10 23 10 6 12 10 4 8 -8 -2 -25 6 -38 18 -14 13 -31 20 -38 18 -15
-6 -65 23 -65 38 0 5 7 16 15 24 8 9 15 21 14 27 0 9 -2 8 -6 0 -6 -16 -45
-17 -61 -1 -7 7 -12 22 -12 35 0 13 -6 23 -14 23 -9 0 -12 -7 -9 -20 8 -32
-15 -23 -57 22 -43 44 -47 56 -27 77 10 11 10 14 0 18 -7 3 -13 12 -13 21 -1
12 -7 9 -25 -13 -23 -28 -25 -29 -42 -12 -13 13 -15 19 -5 29 20 20 14 28 -13
16 -19 -8 -31 -8 -52 1 l-26 12 39 40 39 40 -37 -15 c-50 -21 -64 -21 -47 1
12 15 12 16 -6 9 -11 -5 -31 -11 -44 -14 -21 -4 -23 -2 -19 22 4 20 1 26 -13
26 -16 0 -114 118 -179 214 -16 23 -57 69 -150 169 -101 108 -227 199 -369
267 -59 28 -173 53 -336 74 -22 3 -83 12 -135 21 -52 8 -112 15 -133 15 -21 0
-47 4 -57 10 -23 12 -219 -5 -293 -26 -28 -8 -72 -19 -96 -24 -52 -12 -122
-54 -170 -104 -37 -38 -51 -44 -51 -22 0 14 -29 31 -37 22 -3 -2 1 -20 7 -38
15 -41 2 -71 -54 -133 -39 -42 -42 -50 -25 -60 6 -4 8 -13 5 -21 -3 -7 1 -20
9 -28 9 -9 15 -34 15 -63 1 -93 34 -182 69 -183 8 0 20 -8 27 -17 22 -31 24
-10 9 83 -18 107 -19 193 -4 231 30 73 42 96 59 113 9 9 19 21 21 26 9 22 117
93 149 98 19 4 94 8 165 10 103 2 140 0 180 -14 72 -25 120 -38 205 -55 150
-30 206 -50 330 -117 143 -77 264 -175 324 -262 21 -31 36 -59 33 -63 -14 -13
-148 -16 -173 -2 -22 11 -30 11 -57 -4 -21 -11 -74 -20 -150 -27 -110 -8 -251
-41 -317 -73 -85 -41 -219 -143 -267 -204 -29 -36 -53 -69 -53 -74 0 -19 -103
-118 -130 -124 -16 -3 -34 -14 -41 -23 -11 -14 -11 -15 1 -4 26 23 33 13 26
-37 -8 -61 -51 -182 -68 -192 -10 -6 -10 -11 -1 -20 9 -9 9 -20 -2 -46 -8 -19
-14 -44 -14 -56 0 -12 0 -56 -1 -97 -1 -96 20 -151 85 -226 65 -73 186 -134
268 -134 107 1 193 38 233 98 14 22 14 26 1 39 -14 14 -20 13 -59 -4 -91 -43
-107 -46 -181 -39 -69 6 -177 46 -177 65 0 5 -12 25 -26 46 -31 46 -21 64 26
45 21 -9 34 -10 41 -3 7 7 -1 13 -25 17 -20 4 -47 19 -61 34 -22 23 -25 36
-25 96 0 98 26 179 91 281 10 17 30 52 45 79 28 53 155 186 178 186 7 0 19 6
25 14 6 7 33 21 59 31 109 39 158 60 182 76 14 9 48 24 75 33 28 10 70 28 94
42 24 13 50 24 58 24 7 0 23 9 35 20 24 22 77 27 96 8 9 -9 12 -9 12 0 0 18
25 15 65 -8 20 -11 42 -20 51 -20 8 0 18 -8 22 -17 4 -10 14 -18 22 -18 8 0
14 -6 13 -12 -2 -8 7 -13 21 -13 38 0 56 -10 56 -32 0 -10 5 -16 10 -13 6 3
10 -1 10 -9 0 -9 8 -16 18 -16 9 0 30 -11 45 -25 15 -14 27 -23 27 -19 0 4 13
-10 30 -32 16 -21 30 -49 30 -61 0 -13 3 -23 8 -23 6 0 16 -19 60 -120 27 -62
55 -115 68 -131 8 -8 14 -21 14 -27 0 -17 33 -82 42 -82 4 0 5 -7 1 -16 -4
-10 1 -17 16 -21 11 -3 21 -12 21 -19 0 -8 4 -14 9 -14 5 0 14 -13 20 -30 5
-16 15 -30 20 -30 6 0 11 -6 11 -14 0 -8 7 -16 15 -20 8 -3 15 -10 15 -16 0
-6 16 -33 35 -61 19 -28 35 -57 35 -64 0 -7 5 -15 12 -17 6 -2 8 -9 5 -15 -5
-7 -58 -12 -150 -12 -165 -1 -378 -22 -517 -52 -30 -6 -84 -17 -120 -24 -36
-7 -80 -18 -98 -23 -18 -6 -33 -11 -35 -11 -7 1 -69 -15 -112 -28 -88 -28
-139 -45 -160 -53 -11 -4 -47 -18 -80 -31 -139 -52 -284 -124 -427 -210 -53
-32 -100 -59 -102 -59 -11 0 -178 -131 -302 -236 -125 -107 -330 -317 -370
-379 -10 -17 -42 -60 -71 -97 -29 -37 -53 -71 -53 -76 0 -5 -13 -28 -30 -50
-16 -23 -30 -44 -30 -47 0 -3 -11 -22 -24 -43 -54 -86 -218 -427 -205 -427 1
0 -4 -11 -12 -25 -7 -14 -14 -35 -16 -46 -1 -12 -9 -39 -19 -60 -9 -22 -19
-52 -21 -68 -3 -17 -13 -47 -24 -68 -10 -20 -19 -46 -19 -57 0 -11 -7 -46 -16
-78 -9 -32 -23 -84 -30 -116 -8 -33 -25 -72 -37 -88 -18 -25 -19 -31 -7 -39
12 -7 12 -19 -3 -82 -9 -40 -19 -95 -22 -123 -3 -27 -10 -70 -15 -95 -5 -25
-11 -76 -14 -115 -3 -38 -8 -83 -10 -100 -15 -94 -26 -207 -21 -215 3 -5 -3
-15 -14 -22 -18 -11 -18 -14 -6 -39 11 -21 15 -84 15 -275 1 -137 2 -256 2
-264 0 -16 23 -281 38 -454 6 -60 12 -118 15 -130 3 -12 7 -43 10 -71 5 -50
31 -217 41 -265 2 -14 7 -38 9 -55 3 -16 9 -48 14 -70 9 -35 24 -101 51 -225
4 -19 22 -89 40 -155 17 -66 35 -133 40 -150 14 -58 111 -340 130 -382 11 -24
20 -46 20 -50 0 -12 110 -262 169 -386 75 -157 204 -386 284 -507 39 -58 93
-139 120 -180 28 -41 60 -87 71 -101 12 -14 35 -43 51 -64 325 -409 665 -723
1013 -933 190 -114 400 -215 587 -281 50 -18 106 -41 125 -51 19 -10 58 -25
85 -33 28 -8 77 -28 111 -45 33 -17 101 -45 152 -61 50 -17 122 -46 159 -65
38 -19 87 -39 109 -45 51 -14 253 -87 276 -101 10 -5 30 -10 45 -10 16 0 84
-14 153 -31 69 -16 150 -34 181 -38 51 -8 101 -21 157 -42 13 -5 53 -9 90 -9
37 0 101 -5 142 -10 41 -6 138 -11 215 -11 77 -1 201 -8 275 -15 221 -21 586
-14 780 16 143 22 210 29 225 24 9 -4 23 0 33 8 22 19 140 58 175 58 23 0 229
69 310 103 18 8 59 24 92 37 179 70 512 249 645 347 36 26 97 70 135 97 108
77 244 193 418 356 95 90 438 468 461 509 5 9 50 67 100 130 49 62 144 196
210 297 157 237 147 221 320 534 38 69 173 341 224 450 78 170 250 643 303
835 101 367 151 607 198 955 40 294 45 357 46 590 0 231 -10 419 -29 550 -8
52 -17 115 -21 140 -12 81 -62 293 -98 410 -66 216 -124 357 -230 560 -75 143
-81 154 -88 160 -3 3 -26 37 -52 75 -79 120 -121 180 -150 210 -15 17 -46 56
-70 88 -23 31 -45 57 -49 57 -5 0 -8 9 -8 19 0 11 -6 21 -14 23 -8 2 -82 69
-164 150 -283 275 -436 387 -714 524 -146 71 -367 141 -583 184 -33 7 -67 15
-75 17 -8 3 -46 7 -85 9 -38 2 -88 6 -110 9 -54 7 -289 7 -405 0 -165 -10
-350 -40 -546 -89 -182 -46 -205 -48 -210 -19 -2 14 7 32 27 52 22 22 26 31
15 31 -9 0 -16 6 -16 14 0 8 -5 16 -11 18 -7 2 -3 16 10 38 14 25 17 40 11 50
-16 25 -11 78 10 120 11 21 16 41 11 44 -4 3 -9 61 -10 128 -3 126 -3 137 -14
198 -4 19 -9 67 -11 105 -3 39 -8 84 -11 100 -4 17 -8 44 -10 60 -1 17 -5 37
-9 45 -5 14 -26 111 -45 215 -5 22 -31 110 -60 195 -29 85 -56 171 -62 190
-10 35 -39 106 -85 208 -13 29 -24 55 -24 58 0 5 -103 212 -154 309 -17 33
-41 84 -54 113 -20 47 -51 92 -137 198 -14 18 -25 35 -25 39 0 4 -9 18 -20 32
-13 17 -20 41 -20 71 0 59 -16 203 -35 312 -8 47 -22 132 -30 190 -9 58 -19
130 -24 160 -10 65 -4 385 9 450 17 91 77 239 113 279 56 63 56 74 -3 131 -71
69 -86 67 -154 -19z m-1312 -401 c7 -17 26 -38 43 -48 41 -22 96 -94 165 -214
31 -53 67 -113 82 -134 14 -20 23 -41 20 -46 -4 -5 3 -19 14 -31 11 -12 25
-32 31 -44 6 -13 26 -30 43 -39 37 -19 67 -52 68 -75 0 -8 24 -40 53 -70 48
-49 107 -138 107 -160 0 -5 25 -45 55 -90 31 -44 60 -91 65 -105 5 -13 14 -24
19 -24 15 0 151 -247 151 -274 0 -7 16 -31 35 -53 19 -23 35 -48 35 -57 0 -9
5 -16 10 -16 27 0 0 -121 -34 -150 -19 -15 -21 -37 -5 -42 16 -5 21 -118 6
-124 -8 -3 -12 -32 -12 -85 0 -77 -1 -82 -31 -108 -30 -27 -30 -28 -12 -52 16
-21 17 -32 8 -89 -6 -36 -15 -92 -19 -125 -4 -34 -13 -70 -18 -80 -6 -11 -11
-56 -12 -100 -1 -44 -5 -83 -9 -87 -4 -3 -22 -8 -41 -10 -29 -3 -37 1 -51 27
-10 17 -15 34 -12 38 2 5 -4 7 -14 5 -31 -6 -57 30 -58 78 -1 37 -4 43 -19 38
-11 -3 -37 9 -69 33 -29 21 -58 37 -65 35 -7 -2 -13 2 -13 7 0 6 -18 15 -40
21 -24 6 -40 17 -40 25 0 8 -4 15 -8 15 -10 0 -62 128 -62 152 0 9 -6 18 -12
21 -7 2 -19 26 -27 53 -19 71 -62 194 -78 224 -7 14 -13 30 -13 35 0 6 -13 42
-29 81 -16 38 -32 90 -36 115 -4 24 -16 54 -26 67 -10 13 -21 36 -24 52 -4 17
-11 30 -15 30 -5 0 -7 7 -4 15 3 7 -6 42 -19 77 -14 35 -40 108 -57 163 -18
55 -42 118 -53 140 -15 29 -23 71 -29 150 -5 61 -11 137 -14 169 -5 50 -3 62
12 73 18 13 13 28 -9 28 -7 0 -13 22 -15 55 -5 70 26 351 44 410 9 30 11 55 6
75 -16 57 10 77 32 25z m-234 -2954 c0 -2 -7 -9 -15 -16 -13 -11 -14 -10 -9 4
5 14 24 23 24 12z m1035 -46 c-3 -5 -11 -10 -16 -10 -6 0 -7 5 -4 10 3 6 11
10 16 10 6 0 7 -4 4 -10z"/>
<path d="M4890 10410 c0 -6 7 -10 15 -10 8 0 15 2 15 4 0 2 -7 6 -15 10 -8 3
-15 1 -15 -4z"/>
<path d="M3500 9840 c0 -5 5 -10 10 -10 6 0 10 5 10 10 0 6 -4 10 -10 10 -5 0
-10 -4 -10 -10z"/>
<path d="M3510 9796 c0 -8 5 -18 10 -21 6 -3 10 1 10 9 0 8 -4 18 -10 21 -5 3
-10 -1 -10 -9z"/>
<path d="M3780 9466 c0 -2 7 -7 16 -10 8 -3 12 -2 9 4 -6 10 -25 14 -25 6z"/>
</g>
</svg>
